<?xml version="1.0" encoding="utf-8"?>
<!-- Generator: Adobe Illustrator 16.0.0, SVG Export Plug-In . SVG Version: 6.00 Build 0)  -->
<!DOCTYPE svg PUBLIC "-//W3C//DTD SVG 1.1//EN" "http://www.w3.org/Graphics/SVG/1.1/DTD/svg11.dtd">
<svg version="1.1" id="Layer_1" xmlns="http://www.w3.org/2000/svg" xmlns:xlink="http://www.w3.org/1999/xlink" x="0px" y="0px"
	 width="841.89px" height="595.28px" viewBox="0 0 841.89 595.28" enable-background="new 0 0 841.89 595.28" xml:space="preserve">
<g>
	<polygon fill="none" stroke="#FFFFFF" stroke-width="5" stroke-miterlimit="10" points="913.061,252.075 877.665,252.075 
		877.665,178.006 924.352,178.006 932.242,187.015 932.242,252.076 	"/>
</g>
<g>
	<polyline fill="none" stroke="#FFFFFF" stroke-width="5" stroke-miterlimit="10" points="892.067,178.097 892.067,164.44 
		938.754,164.44 946.645,173.449 946.645,238.09 932.95,238.09 	"/>
</g>
<text transform="matrix(1 0 0 1 879.1777 310.1621)" fill="#FFFFFF" font-family="'Roboto-Regular'" font-size="16.1077">Duplicar</text>
<text transform="matrix(1 0 0 1 1106.8613 310.1621)" fill="#FFFFFF" font-family="'Roboto-Regular'" font-size="16.1077">Editar</text>
<text transform="matrix(1 0 0 1 1335.0332 310.1621)" fill="#FFFFFF" font-family="'Roboto-Regular'" font-size="16.1077">Eliminar</text>
<g>
	<polygon fill="none" stroke="#FFFFFF" stroke-width="5" stroke-miterlimit="10" points="923.487,178.312 922.083,178.312 
		922.083,189.355 932.247,189.355 932.247,187.828 	"/>
</g>
<g>
	<polyline fill="none" stroke="#FFFFFF" stroke-width="5" stroke-miterlimit="10" points="1148.164,203.338 1148.164,252.076 
		1128.982,252.075 1093.588,252.075 1093.588,178.006 1126.492,178.006 	"/>
</g>
<g>
	<polygon fill="none" stroke="#FFFFFF" stroke-width="5" stroke-miterlimit="10" points="937.409,164.726 936.005,164.726 
		936.005,175.769 946.169,175.769 946.169,174.241 	"/>
</g>
<line opacity="0.38" fill="none" stroke="#FFFFFF" stroke-width="1.6295" stroke-miterlimit="10" x1="1315.486" y1="161.843" x2="1410.061" y2="161.843"/>
<line opacity="0.38" fill="none" stroke="#FFFFFF" stroke-width="1.6295" stroke-miterlimit="10" x1="1315.486" y1="255.843" x2="1410.061" y2="255.843"/>
<line opacity="0.38" fill="none" stroke="#FFFFFF" stroke-width="1.6295" stroke-miterlimit="10" x1="1081.986" y1="161.843" x2="1176.561" y2="161.843"/>
<line opacity="0.38" fill="none" stroke="#FFFFFF" stroke-width="1.6295" stroke-miterlimit="10" x1="1081.986" y1="255.843" x2="1176.561" y2="255.843"/>
<line opacity="0.38" fill="none" stroke="#FFFFFF" stroke-width="1.6295" stroke-miterlimit="10" x1="865.486" y1="161.843" x2="960.061" y2="161.843"/>
<line opacity="0.38" fill="none" stroke="#FFFFFF" stroke-width="1.6295" stroke-miterlimit="10" x1="865.486" y1="255.843" x2="960.061" y2="255.843"/>
<polygon fill="none" stroke="#FFFFFF" stroke-width="4.2582" stroke-miterlimit="10" points="1128.068,208.509 1116.404,211.735 
	1119.631,200.071 1155.43,164.272 1163.869,172.71 "/>
<line fill="none" stroke="#FFFFFF" stroke-width="3.0501" stroke-miterlimit="10" x1="1119.693" y1="200.382" x2="1128.068" y2="208.758"/>
<line fill="none" stroke="#FFFFFF" stroke-width="3.0501" stroke-miterlimit="10" x1="1148.594" y1="169.792" x2="1158.158" y2="179.356"/>
<line opacity="0.38" fill="none" stroke="#FFFFFF" stroke-width="2" stroke-miterlimit="10" x1="875.299" y1="153.176" x2="875.299" y2="268.343"/>
<line opacity="0.38" fill="none" stroke="#FFFFFF" stroke-width="2" stroke-miterlimit="10" x1="949.967" y1="153.176" x2="949.967" y2="268.343"/>
<line opacity="0.38" fill="none" stroke="#FFFFFF" stroke-width="2" stroke-miterlimit="10" x1="1091.965" y1="153.176" x2="1091.965" y2="268.343"/>
<line opacity="0.38" fill="none" stroke="#FFFFFF" stroke-width="2" stroke-miterlimit="10" x1="1166.633" y1="153.176" x2="1166.633" y2="268.343"/>
<line opacity="0.38" fill="none" stroke="#FFFFFF" stroke-width="2" stroke-miterlimit="10" x1="1326.43" y1="153.176" x2="1326.43" y2="268.343"/>
<line opacity="0.38" fill="none" stroke="#FFFFFF" stroke-width="2" stroke-miterlimit="10" x1="1401.098" y1="153.176" x2="1401.098" y2="268.343"/>
<g>
	<polyline fill="none" stroke="#FFFFFF" stroke-width="5" stroke-miterlimit="10" points="1391.035,195.156 1391.035,253.397 
		1371.854,253.396 1336.457,253.396 1336.457,195.251 	"/>
</g>
<rect x="1327.037" y="174.522" fill="none" stroke="#FFFFFF" stroke-width="4.9362" stroke-miterlimit="10" width="72.43" height="9.745"/>
<rect x="1349.271" y="164.225" fill="none" stroke="#FFFFFF" stroke-width="5" stroke-miterlimit="10" width="29.094" height="9.121"/>
<line fill="none" stroke="#FFFFFF" stroke-width="5" stroke-miterlimit="10" x1="1348.824" y1="209.885" x2="1348.824" y2="245.086"/>
<line fill="none" stroke="#FFFFFF" stroke-width="5" stroke-miterlimit="10" x1="1364.156" y1="209.885" x2="1364.156" y2="245.086"/>
<line fill="none" stroke="#FFFFFF" stroke-width="5" stroke-miterlimit="10" x1="1379.49" y1="209.885" x2="1379.49" y2="245.086"/>
</svg>
