<?xml version="1.0" encoding="utf-8"?>
<!-- Generator: Adobe Illustrator 16.0.0, SVG Export Plug-In . SVG Version: 6.00 Build 0)  -->
<!DOCTYPE svg PUBLIC "-//W3C//DTD SVG 1.1//EN" "http://www.w3.org/Graphics/SVG/1.1/DTD/svg11.dtd">
<svg version="1.1" id="Layer_1" xmlns="http://www.w3.org/2000/svg" xmlns:xlink="http://www.w3.org/1999/xlink" x="0px" y="0px"
	 width="841.89px" height="595.28px" viewBox="0 0 841.89 595.28" enable-background="new 0 0 841.89 595.28" xml:space="preserve">
<path fill="#868281" d="M259.47,256.189l-64-16.989l-0.76,2.854l3.179,0.842v8.08l-47.59,12.676l0.761,2.854l2.796-0.741v34.264
	h0.532v0.006h100.321v-0.006h0.447v-41.93l3.556,0.944L259.47,256.189z M225.245,250.161v7.556h-24.399v-14.035L225.245,250.161z
	 M252.206,269.357l-8.818-8.814h8.818V269.357z M242.343,260.543l9.863,9.858v25.912h-25.483v-35.771H242.343z M225.245,296.313
	h-24.399v-25.478l10.286-10.293h14.113V296.313z M156.81,269.197h9.033l-9.033,9.031V269.197z M156.81,279.273l10.073-10.076h17.146
	l9.947,9.949v17.167H156.81V279.273z M193.977,278.104l-8.904-8.906h8.904V278.104z M195.454,269.197h2.435v27.116h-2.435V269.197z
	 M200.846,260.543h9.247l-9.247,9.248V260.543z M197.889,266.371h-2.435v-11.688l2.435-0.648V266.371z M193.977,255.076v11.295
	H156.81v-1.395L193.977,255.076z M252.206,257.717h-25.483v-7.166l25.483,6.765V257.717z"/>
<line fill="none" stroke="#868281" stroke-width="0.6406" stroke-miterlimit="10" x1="262.583" y1="239.212" x2="146.971" y2="239.212"/>
<line fill="none" stroke="#868281" stroke-width="0.6406" stroke-miterlimit="10" x1="262.583" y1="299.512" x2="146.971" y2="299.512"/>
<line fill="none" stroke="#868281" stroke-width="0.6406" stroke-miterlimit="10" x1="255.122" y1="233.684" x2="255.122" y2="306.999"/>
<line fill="none" stroke="#868281" stroke-width="0.6406" stroke-miterlimit="10" x1="153.68" y1="233.684" x2="153.68" y2="306.999"/>

<line fill="none" stroke="#868281" stroke-width="3.0043" stroke-miterlimit="10" x1="331.695" y1="239.041" x2="331.695" y2="298.431"/>
<line fill="none" stroke="#868281" stroke-width="3.0043" stroke-miterlimit="10" x1="322.938" y1="238.929" x2="322.938" y2="298.318"/>
<line fill="none" stroke="#868281" stroke-width="3.0043" stroke-miterlimit="10" x1="340.454" y1="239.041" x2="340.454" y2="298.431"/>
<line fill="none" stroke="#868281" stroke-width="3.0043" stroke-miterlimit="10" x1="349.213" y1="239.041" x2="349.213" y2="298.431"/>
<line fill="none" stroke="#868281" stroke-width="3.0043" stroke-miterlimit="10" x1="357.971" y1="239.041" x2="357.971" y2="298.431"/>
<line fill="none" stroke="#868281" stroke-width="3.0043" stroke-miterlimit="10" x1="366.729" y1="239.041" x2="366.729" y2="298.431"/>
<line fill="none" stroke="#868281" stroke-width="3.0043" stroke-miterlimit="10" x1="375.487" y1="239.041" x2="375.487" y2="298.431"/>
<line fill="none" stroke="#868281" stroke-width="3.0043" stroke-miterlimit="10" x1="384.246" y1="239.041" x2="384.246" y2="298.431"/>
<line fill="none" stroke="#868281" stroke-width="3.0043" stroke-miterlimit="10" x1="393.004" y1="239.041" x2="393.004" y2="298.431"/>
<line fill="none" stroke="#868281" stroke-width="0.6406" stroke-miterlimit="10" x1="399.168" y1="239.074" x2="317.377" y2="239.074"/>
<line fill="none" stroke="#868281" stroke-width="0.6406" stroke-miterlimit="10" x1="399.168" y1="298.355" x2="317.377" y2="298.355"/>
<line fill="none" stroke="#868281" stroke-width="0.6406" stroke-miterlimit="10" x1="322.973" y1="232.842" x2="322.973" y2="304.08"/>
<line fill="none" stroke="#868281" stroke-width="0.6406" stroke-miterlimit="10" x1="393.248" y1="232.842" x2="393.248" y2="304.08"/>
<path fill="none" stroke="#868281" stroke-width="2.2321" stroke-miterlimit="10" d="M374.693,288.779"/>
<line fill="none" stroke="#868281" stroke-width="2.7685" stroke-miterlimit="10" x1="384.282" y1="262.832" x2="393.154" y2="262.832"/>
<line fill="none" stroke="#868281" stroke-width="2.7685" stroke-miterlimit="10" x1="358.431" y1="246.369" x2="367.303" y2="246.369"/>
<line fill="none" stroke="#868281" stroke-width="2.7685" stroke-miterlimit="10" x1="374.673" y1="284.543" x2="384.174" y2="284.543"/>
<polygon fill="#FFFFFF" stroke="#868281" stroke-width="2.7591" stroke-miterlimit="10" points="357.343,262.621 357.343,249.714 
	323.493,249.714 323.493,297.129 374.226,297.129 374.226,262.621 "/>

<line fill="none" stroke="#868281" stroke-width="3.0043" stroke-miterlimit="10" x1="507.416" y1="239.258" x2="471.104" y2="275.57"/>
<line fill="none" stroke="#868281" stroke-width="3.0043" stroke-miterlimit="10" x1="505.328" y1="239.258" x2="541.219" y2="275.148"/>
<line fill="none" stroke="#868281" stroke-width="0.6406" stroke-miterlimit="10" x1="547.239" y1="239.074" x2="465.448" y2="239.074"/>
<line fill="none" stroke="#868281" stroke-width="0.6406" stroke-miterlimit="10" x1="547.239" y1="298.355" x2="465.448" y2="298.355"/>
<line fill="none" stroke="#868281" stroke-width="0.6406" stroke-miterlimit="10" x1="471.044" y1="232.842" x2="471.044" y2="304.08"/>
<line fill="none" stroke="#868281" stroke-width="0.6406" stroke-miterlimit="10" x1="541.319" y1="232.842" x2="541.319" y2="304.08"/>
<line fill="none" stroke="#868281" stroke-width="3.0043" stroke-miterlimit="10" x1="481.351" y1="265.262" x2="481.351" y2="298.725"/>
<line fill="none" stroke="#868281" stroke-width="3.0043" stroke-miterlimit="10" x1="506.362" y1="241.55" x2="506.362" y2="298.686"/>
<line fill="none" stroke="#868281" stroke-width="3.0043" stroke-miterlimit="10" x1="531.604" y1="265.262" x2="531.604" y2="298.725"/>
<line fill="none" stroke="#868281" stroke-width="3.0043" stroke-miterlimit="10" x1="478.286" y1="269" x2="535" y2="269"/>
<polyline fill="none" stroke="#868281" stroke-width="2" stroke-miterlimit="10" points="494.721,252.399 506.379,267.795 
	518.157,252.148 "/>
<path fill="none" stroke="#868281" stroke-width="2" stroke-miterlimit="10" d="M494.718,253.249"/>
<line fill="none" stroke="#868281" stroke-width="0.6406" stroke-miterlimit="10" x1="695.483" y1="239.967" x2="624.125" y2="239.967"/>
<line fill="none" stroke="#868281" stroke-width="0.6406" stroke-miterlimit="10" x1="695.483" y1="295.62" x2="624.125" y2="295.62"/>
<line fill="none" stroke="#868281" stroke-width="0.6051" stroke-miterlimit="10" x1="628.43" y1="236.146" x2="628.43" y2="300.152"/>
<line fill="none" stroke="#868281" stroke-width="0.6051" stroke-miterlimit="10" x1="691.165" y1="236.146" x2="691.165" y2="300.152"/>
<g>
	<path fill="#888482" d="M657.593,276.503c0.11,1.138,0.295,1.974,0.566,2.558c0.34,0.736,0.969,1.125,1.822,1.125
		c0.834,0,1.468-0.395,1.833-1.139c0.297-0.607,0.485-1.434,0.571-2.516l0.732-8.416c0.082-0.789,0.124-1.58,0.124-2.353
		c0-1.38-0.183-2.425-0.557-3.192c-0.3-0.617-0.979-1.351-2.5-1.351c-0.978,0-1.782,0.33-2.391,0.981
		c-0.6,0.643-0.904,1.523-0.904,2.621c0,0.709,0.052,1.877,0.154,3.477L657.593,276.503z"/>
	<path fill="#888482" d="M660.049,281.985c-0.879,0-1.632,0.311-2.241,0.918c-0.609,0.609-0.917,1.358-0.917,2.225
		c0,0.985,0.33,1.772,0.982,2.338c0.628,0.546,1.371,0.821,2.21,0.821c0.831,0,1.567-0.279,2.191-0.834
		c0.641-0.572,0.968-1.354,0.968-2.325c0-0.87-0.315-1.62-0.94-2.229C661.682,282.293,660.925,281.985,660.049,281.985z"/>
</g>
<path fill="none" stroke="#868281" stroke-width="4" stroke-miterlimit="10" d="M660.066,240.299c-0.404,0-1.1,0.499-1.742,1.613
	l-29.473,51.049c-0.646,1.113-0.729,1.965-0.527,2.315c0.202,0.348,0.981,0.7,2.27,0.7h58.945c1.287,0,2.066-0.353,2.27-0.701
	c0.201-0.35,0.116-1.2-0.527-2.314l-29.473-51.049C661.167,240.798,660.471,240.299,660.066,240.299z"/>
</svg>
