<?xml version="1.0" encoding="utf-8"?>
<!-- Generator: Adobe Illustrator 16.0.0, SVG Export Plug-In . SVG Version: 6.00 Build 0)  -->
<!DOCTYPE svg PUBLIC "-//W3C//DTD SVG 1.1//EN" "http://www.w3.org/Graphics/SVG/1.1/DTD/svg11.dtd">
<svg version="1.1" id="Layer_1" xmlns="http://www.w3.org/2000/svg" xmlns:xlink="http://www.w3.org/1999/xlink" x="0px" y="0px"
	 width="841.89px" height="595.28px" viewBox="0 0 841.89 595.28" enable-background="new 0 0 841.89 595.28" xml:space="preserve">
<line fill="none" stroke="#868281" stroke-width="0.6406" stroke-miterlimit="10" x1="464.109" y1="233.607" x2="382.319" y2="233.607"/>
<line fill="none" stroke="#868281" stroke-width="0.6406" stroke-miterlimit="10" x1="464.109" y1="292.889" x2="382.319" y2="292.889"/>
<line fill="none" stroke="#868281" stroke-width="0.6406" stroke-miterlimit="10" x1="387.914" y1="228.08" x2="387.914" y2="299.318"/>
<line fill="none" stroke="#868281" stroke-width="0.6406" stroke-miterlimit="10" x1="458.189" y1="228.08" x2="458.189" y2="299.318"/>
<line fill="none" stroke="#868281" stroke-width="2.8211" stroke-miterlimit="10" x1="394.637" y1="253.251" x2="415.885" y2="253.251"/>
<line fill="none" stroke="#868281" stroke-width="2.8211" stroke-miterlimit="10" x1="394.637" y1="262.069" x2="415.885" y2="262.069"/>
<line fill="none" stroke="#868281" stroke-width="2.8211" stroke-miterlimit="10" x1="394.637" y1="270.888" x2="415.885" y2="270.888"/>
<line fill="none" stroke="#868281" stroke-width="2.8211" stroke-miterlimit="10" x1="430.914" y1="253.251" x2="452.16" y2="253.251"/>
<line fill="none" stroke="#868281" stroke-width="2.8211" stroke-miterlimit="10" x1="430.914" y1="262.069" x2="452.16" y2="262.069"/>
<line fill="none" stroke="#868281" stroke-width="2.8211" stroke-miterlimit="10" x1="430.914" y1="270.888" x2="452.16" y2="270.888"/>
<line fill="none" stroke="#868281" stroke-width="0.5758" stroke-miterlimit="10" x1="229.285" y1="234.112" x2="163.195" y2="234.112"/>
<line fill="none" stroke="#868281" stroke-width="0.5758" stroke-miterlimit="10" x1="229.285" y1="293.394" x2="163.195" y2="293.394"/>
<line fill="none" stroke="#868281" stroke-width="0.6406" stroke-miterlimit="10" x1="168.79" y1="227.879" x2="168.79" y2="299.119"/>
<line fill="none" stroke="#868281" stroke-width="0.6406" stroke-miterlimit="10" x1="224.271" y1="227.879" x2="224.271" y2="299.119"/>
<line fill="none" stroke="#868281" stroke-width="2.8211" stroke-miterlimit="10" x1="173.686" y1="246.188" x2="168.839" y2="246.188"/>
<line fill="none" stroke="#868281" stroke-width="2.8211" stroke-miterlimit="10" x1="173.686" y1="252.924" x2="168.839" y2="252.924"/>
<line fill="none" stroke="#868281" stroke-width="2.8211" stroke-miterlimit="10" x1="173.686" y1="259.659" x2="168.839" y2="259.659"/>
<line fill="none" stroke="#868281" stroke-width="2.8211" stroke-miterlimit="10" x1="173.686" y1="266.395" x2="168.839" y2="266.395"/>
<line fill="none" stroke="#868281" stroke-width="2.8211" stroke-miterlimit="10" x1="173.686" y1="273.13" x2="168.839" y2="273.13"/>
<line fill="none" stroke="#868281" stroke-width="2.8211" stroke-miterlimit="10" x1="173.686" y1="279.866" x2="168.839" y2="279.866"/>
<line fill="none" stroke="#868281" stroke-width="2.8211" stroke-miterlimit="10" x1="173.686" y1="286.602" x2="168.839" y2="286.602"/>
<polygon fill="none" stroke="#868281" stroke-width="2.8211" stroke-miterlimit="10" points="168.646,234.945 168.646,293.233 
	222.805,293.233 "/>
<polygon fill="none" stroke="#868281" stroke-width="2.8211" stroke-miterlimit="10" points="179.666,262.548 179.666,281.303 
	197.092,281.303 "/>
<line fill="none" stroke="#868281" stroke-width="0.5758" stroke-miterlimit="10" x1="666.285" y1="234.112" x2="600.195" y2="234.112"/>
<line fill="none" stroke="#868281" stroke-width="0.5758" stroke-miterlimit="10" x1="666.285" y1="293.394" x2="600.195" y2="293.394"/>
<line fill="none" stroke="#868281" stroke-width="0.6406" stroke-miterlimit="10" x1="605.789" y1="227.879" x2="605.789" y2="299.119"/>
<line fill="none" stroke="#868281" stroke-width="0.6406" stroke-miterlimit="10" x1="661.271" y1="227.879" x2="661.271" y2="299.119"/>
<path fill="none" stroke="#868281" stroke-width="2.8211" stroke-miterlimit="10" d="M387.966,288.688h1.494
	c3.807-1.899,9.634-3.116,16.175-3.116s12.368,1.217,16.175,3.116h1.493v-47.231l-1.037-0.534
	c-3.787-2.036-9.816-3.361-16.631-3.361c-7.392,0-13.855,1.559-17.535,3.895l-0.134,0.083c-0.035,0.022-0.074,0.045-0.109,0.067
	L387.966,288.688z"/>
<path fill="none" stroke="#868281" stroke-width="2.8211" stroke-miterlimit="10" d="M423.564,288.688h1.494
	c3.807-1.899,9.633-3.116,16.174-3.116c6.543,0,12.369,1.217,16.176,3.116h1.492v-47.231l-1.037-0.534
	c-3.785-2.036-9.814-3.361-16.631-3.361c-7.391,0-13.854,1.559-17.533,3.895l-0.135,0.083c-0.035,0.022-0.074,0.045-0.109,0.067
	c0,0,0.074,8.636,0.109,8.659V288.688z"/>

<polygon fill="none" stroke="#868281" stroke-width="2.8211" stroke-miterlimit="10" points="661.832,242 661.832,234.333 
	605.498,234.333 605.498,242 629.164,242 629.164,286.333 605.498,286.333 605.498,294 661.832,294 661.832,286.333 
	638.166,286.333 638.166,242 "/>
<line fill="none" stroke="#868281" stroke-width="0.5758" stroke-miterlimit="10" x1="633.746" y1="238.175" x2="633.746" y2="289.96"/>
<line fill="none" stroke="#868281" stroke-width="0.5758" stroke-miterlimit="10" x1="662.406" y1="290.268" x2="605.404" y2="290.268"/>
<line fill="none" stroke="#868281" stroke-width="0.5758" stroke-miterlimit="10" x1="662.406" y1="238.014" x2="605.404" y2="238.014"/>
</svg>
