<?xml version="1.0" encoding="utf-8"?>
<!-- Generator: Adobe Illustrator 16.0.0, SVG Export Plug-In . SVG Version: 6.00 Build 0)  -->
<!DOCTYPE svg PUBLIC "-//W3C//DTD SVG 1.1//EN" "http://www.w3.org/Graphics/SVG/1.1/DTD/svg11.dtd">
<svg version="1.1" id="Layer_1" xmlns="http://www.w3.org/2000/svg" xmlns:xlink="http://www.w3.org/1999/xlink" x="0px" y="0px"
	 width="1300.89px" height="595.28px" viewBox="-200 0  1300.89 595.28" enable-background="new 0 0 1300.89 595.28" xml:space="preserve">
<line fill="none" stroke="#868281" stroke-width="0.6406" stroke-miterlimit="10" x1="202.265" y1="240.045" x2="120.475" y2="240.045"/>
<linearGradient id="SVGID_1_" gradientUnits="userSpaceOnUse" x1="304.6577" y1="247.5708" x2="378.1484" y2="247.5708">
	<stop  offset="0" style="stop-color:#FFFFFF"/>
	<stop  offset="1" style="stop-color:#000000"/>
</linearGradient>
<line fill="url(#SVGID_1_)" stroke="#868281" stroke-width="0.746" stroke-miterlimit="10" x1="378.148" y1="247.571" x2="304.658" y2="247.571"/>
<linearGradient id="SVGID_2_" gradientUnits="userSpaceOnUse" x1="304.6577" y1="299.3525" x2="378.1484" y2="299.3525">
	<stop  offset="0" style="stop-color:#FFFFFF"/>
	<stop  offset="1" style="stop-color:#000000"/>
</linearGradient>
<line fill="url(#SVGID_2_)" stroke="#868281" stroke-width="0.746" stroke-miterlimit="10" x1="378.148" y1="299.353" x2="304.658" y2="299.353"/>
<line fill="none" stroke="#868281" stroke-width="0.6406" stroke-miterlimit="10" x1="202.265" y1="299.327" x2="120.475" y2="299.327"/>
<line fill="none" stroke="#868281" stroke-width="0.6406" stroke-miterlimit="10" x1="126.07" y1="234.518" x2="126.07" y2="305.757"/>
<line fill="none" stroke="#868281" stroke-width="0.6188" stroke-miterlimit="10" x1="310.377" y1="241.116" x2="310.377" y2="305.196"/>
<line fill="none" stroke="#868281" stroke-width="0.6406" stroke-miterlimit="10" x1="196.345" y1="234.518" x2="196.345" y2="305.757"/>
<line fill="none" stroke="#868281" stroke-width="0.6406" stroke-miterlimit="10" x1="560.851" y1="237.983" x2="489.492" y2="237.983"/>
<line fill="none" stroke="#868281" stroke-width="0.6406" stroke-miterlimit="10" x1="561.241" y1="300.857" x2="489.883" y2="300.857"/>
<line fill="none" stroke="#868281" stroke-width="0.6406" stroke-miterlimit="10" x1="493.797" y1="234.163" x2="493.797" y2="305.898"/>
<line fill="none" stroke="#868281" stroke-width="0.6406" stroke-miterlimit="10" x1="556.532" y1="234.163" x2="556.532" y2="305.898"/>
<line fill="none" stroke="#868281" stroke-width="0.6406" stroke-miterlimit="10" x1="738.735" y1="238.374" x2="667.377" y2="238.374"/>
<line fill="none" stroke="#868281" stroke-width="0.6406" stroke-miterlimit="10" x1="738.735" y1="300.857" x2="667.377" y2="300.857"/>
<line fill="none" stroke="#868281" stroke-width="0.6406" stroke-miterlimit="10" x1="671.292" y1="234.163" x2="671.292" y2="305.898"/>
<line fill="none" stroke="#868281" stroke-width="0.6406" stroke-miterlimit="10" x1="734.026" y1="234.163" x2="734.026" y2="305.898"/>
<rect x="126.324" y="256.406" fill="none" stroke="#868281" stroke-width="2.7685" stroke-miterlimit="10" width="70.349" height="43.006"/>
<polyline fill="none" stroke="#868281" stroke-width="2.7685" stroke-miterlimit="10" points="126.324,256.934 126.324,246.549 
	145.743,246.549 151.396,256.653 "/>
<polyline fill="none" stroke="#868281" stroke-width="2.7685" stroke-miterlimit="10" points="148.603,250.33 196.672,250.33 
	196.672,293.335 "/>
<polyline fill="none" stroke="#868281" stroke-width="2.7685" stroke-miterlimit="10" points="133.991,247.297 133.991,240.473 
	153.411,240.473 159.064,250.576 "/>
<g>
	<g>
		<polygon fill="none" stroke="#868281" stroke-width="2.7576" stroke-miterlimit="10" points="-29.236,241.031 -30.64,241.031 
			-30.64,252.074 -20.476,252.074 -20.476,250.547 		"/>
	</g>
	<g>
		<g>
			<path fill="#868281" d="M-25.316,305.606h6.474v3.781h-6.474v7.377h-4.021v-7.377h-6.508v-3.781h6.508v-6.9h4.021V305.606z"/>
		</g>
	</g>
	
		<line fill="none" stroke="#868281" stroke-width="0.6406" stroke-miterlimit="10" x1="-74.969" y1="234.525" x2="-74.969" y2="321.64"/>
	
		<line fill="none" stroke="#868281" stroke-width="0.6406" stroke-miterlimit="10" x1="-20.674" y1="234.525" x2="-20.674" y2="294.466"/>
	
		<line fill="none" stroke="#868281" stroke-width="0.6406" stroke-miterlimit="10" x1="-13.981" y1="240.484" x2="-82.878" y2="240.484"/>
	
		<line fill="none" stroke="#868281" stroke-width="0.6406" stroke-miterlimit="10" x1="-41.428" y1="315.058" x2="-81.878" y2="315.058"/>
	<g>
		<path fill="#868281" d="M-29.783,272.379l-21.52-5.712l-0.255,0.96l1.069,0.283v2.717l-16.002,4.262l0.256,0.959l0.94-0.25v11.521
			h0.179v0.002h33.732v-0.002h0.151v-14.099l1.195,0.317L-29.783,272.379z M-41.291,270.353v2.541h-8.205v-4.719L-41.291,270.353z
			 M-32.226,276.807l-2.964-2.964h2.964V276.807z M-35.542,273.843l3.315,3.315v8.713h-8.568v-12.028H-35.542z M-41.291,285.871
			h-8.205v-8.567l3.46-3.461h4.745V285.871z M-64.302,276.753h3.037l-3.037,3.037V276.753z M-64.302,280.142l3.387-3.388h5.765
			l3.345,3.345v5.772h-12.497V280.142z M-51.805,279.748l-2.994-2.995h2.994V279.748z M-51.308,276.753h0.819v9.118h-0.819V276.753z
			 M-49.496,273.843h3.109l-3.109,3.11V273.843z M-50.489,275.803h-0.819v-3.93l0.819-0.218V275.803z M-51.805,272.005v3.798
			h-12.497v-0.469L-51.805,272.005z M-32.226,272.893h-8.568v-2.41l8.568,2.275V272.893z"/>
		<rect x="-31.659" y="263.542" fill="#868281" width="0.426" height="28.568"/>
		<rect x="-65.582" y="263.542" fill="#868281" width="0.426" height="28.568"/>
		<rect x="-68.601" y="286.218" fill="#868281" width="41.209" height="0.426"/>
		<rect x="-50.551" y="266.583" fill="#868281" width="23.16" height="0.426"/>
		<rect x="-68.614" y="270.463" fill="#868281" width="18.602" height="0.426"/>
	</g>
	<g>
		<polyline fill="none" stroke="#868281" stroke-width="2.7685" stroke-miterlimit="10" points="-20.454,295.283 -20.454,249.982 
			-28.345,240.973 -75.031,240.973 -75.031,315.043 -39.635,315.043 		"/>
	</g>
</g>
<line fill="none" stroke="#868281" stroke-width="2.7685" stroke-miterlimit="10" x1="176.851" y1="280.356" x2="189.025" y2="280.356"/>
<line fill="none" stroke="#868281" stroke-width="2.7685" stroke-miterlimit="10" x1="171.236" y1="286" x2="189.025" y2="286"/>
<line fill="none" stroke="#868281" stroke-width="2.7685" stroke-miterlimit="10" x1="166.042" y1="291.644" x2="189.025" y2="291.644"/>
<line fill="none" stroke="#868281" stroke-width="0.6406" stroke-miterlimit="10" x1="932.982" y1="240.045" x2="851.191" y2="240.045"/>
<line fill="none" stroke="#868281" stroke-width="0.6406" stroke-miterlimit="10" x1="932.982" y1="299.327" x2="851.191" y2="299.327"/>
<line fill="none" stroke="#868281" stroke-width="0.6406" stroke-miterlimit="10" x1="856.787" y1="233.813" x2="856.787" y2="305.052"/>
<line fill="none" stroke="#868281" stroke-width="0.6406" stroke-miterlimit="10" x1="927.062" y1="233.813" x2="927.062" y2="305.052"/>
<line fill="none" stroke="#868281" stroke-width="2.7685" stroke-miterlimit="10" x1="906.793" y1="262.216" x2="872.059" y2="262.216"/>
<line fill="none" stroke="#868281" stroke-width="2.7685" stroke-miterlimit="10" x1="906.793" y1="270.831" x2="879.672" y2="270.831"/>
<path fill="none" stroke="#868281" stroke-width="2.2321" stroke-miterlimit="10" d="M913.521,275.119"/>
<rect x="310.36" y="247.672" fill="none" stroke="#868281" stroke-width="2.3982" stroke-miterlimit="10" width="67.757" height="51.602"/>
<polyline fill="none" stroke="#868281" stroke-width="2.3982" stroke-miterlimit="10" points="320.646,247.155 322.447,233.7 
	389.777,243.225 383.982,294.499 378.491,293.89 "/>
<path fill="#868281" d="M361.063,271.61h1.987l-1.987-3.188h-23.812l-1.529-1.111v-4.226h-2.76v2.221l-4.693-3.407l-12.092,8.778
	h2.815v11.325h-1.821v2.195h45.383v-2.195h-1.491V271.61L361.063,271.61z M324.763,276.17h-2.788v-2.787h2.788V276.17z
	 M330.588,282.106h-3.312v-6.626h3.312V282.106z M335.888,276.17h-2.787v-2.787h2.787V276.17z M344.5,276.17h-2.787v-2.787h2.787
	V276.17z M350.601,276.17h-2.788v-2.787h2.788V276.17z M356.7,276.17h-2.786v-2.787h2.786V276.17z"/>
<path fill="#868281" d="M373.908,275.718c0-2.521-2.045-4.568-4.568-4.568s-4.568,2.045-4.568,4.568
	c0,2.297,1.696,4.194,3.904,4.514v3.376h1.326v-3.376C372.209,279.91,373.908,278.015,373.908,275.718z"/>
<g>
	<circle fill="none" stroke="#868281" stroke-width="1.479" stroke-miterlimit="10" cx="524.846" cy="254.18" r="4.328"/>
	<rect x="524.283" y="247.392" fill="#868281" width="1.081" height="2.458"/>
	<rect x="523.688" y="244.024" fill="#868281" width="2.272" height="4.425"/>
	<polygon fill="#868281" points="513.027,284.681 513.027,289.965 514.371,289.965 523.378,259.121 522.707,257.36 521.672,257.36 	
		"/>
	<polygon fill="#868281" points="536.367,284.681 536.367,289.965 535.023,289.965 526.016,259.121 526.642,257.36 527.677,257.36 	
		"/>
	<rect x="512.221" y="270.75" fill="#868281" width="2.061" height="2.06"/>
	<rect x="535.331" y="270.75" fill="#868281" width="2.061" height="2.06"/>
	<rect x="513.027" y="271.154" fill="#868281" width="23.379" height="1.254"/>
	<rect x="524.09" y="267.974" fill="#868281" width="1.254" height="7.704"/>
	<rect x="513.386" y="289.651" fill="#868281" width="0.626" height="3.27"/>
	<rect x="535.555" y="289.651" fill="#868281" width="0.628" height="3.27"/>
</g>
<circle fill="none" stroke="#868281" stroke-width="2.7685" stroke-miterlimit="10" cx="525.156" cy="269.602" r="30.248"/>
<circle fill="none" stroke="#868281" stroke-width="2.7685" stroke-miterlimit="10" cx="702.436" cy="269.602" r="30.248"/>
<path fill="#868281" d="M727.116,271.071l-4.693-12.908c-0.053-0.202-0.186-0.374-0.369-0.474c-0.184-0.1-0.4-0.12-0.599-0.056
	l-8.647,3.397c-1.467-0.82-7.018-3.883-8.76-4.173c-0.287-0.048-0.597-0.072-0.918-0.072c-1.514,0-2.967,0.537-3.352,0.689
	c-0.895,0.106-5.625,0.721-8.809,2.314c-2.776-1.432-4.982-3.076-5.006-3.093c-0.167-0.125-0.38-0.178-0.584-0.14
	c-0.207,0.036-0.389,0.156-0.504,0.33l-7.589,11.532c-0.224,0.34-0.138,0.798,0.194,1.035l9.574,6.839
	c-0.33,0.77-0.348,1.543-0.041,2.243c0.529,1.206,1.85,1.885,2.549,2.172c0.537,2.165,1.909,2.504,2.712,2.504
	c0.269,0,0.521-0.037,0.741-0.09c0.765,1.696,1.821,2.078,2.614,2.078c0,0,0,0,0.001,0c0.408,0,0.771-0.104,1.062-0.227
	c0.472,0.528,1.312,1.23,2.536,1.385c0.128,0.015,0.249,0.022,0.362,0.022c0.74,0,1.197-0.314,1.451-0.577
	c0.346-0.358,0.491-0.803,0.552-1.141l1.689,1.185l0.046,0.03c0.148,0.089,1.213,0.703,2.344,0.703c0.338,0,0.684-0.056,1.012-0.196
	c0.395-0.17,0.886-0.521,1.203-1.239c0.645,0.033,1.629-0.035,2.461-0.612c0.632-0.438,1.061-1.076,1.281-1.897
	c0.642-0.056,1.605-0.264,2.362-0.955c0.563-0.515,0.913-1.191,1.048-2.022c0.676-0.011,1.629-0.16,2.354-0.815
	c0.694-0.626,1.021-1.544,0.981-2.726l8.346-4.174C727.044,271.782,727.208,271.418,727.116,271.071z M688.403,277.922
	c-0.147-0.335-0.124-0.685,0.072-1.101c0.475-1.003,1.041-1.602,1.516-1.602c0.285,0,0.631,0.209,1,0.595
	c-0.581,0.722-1.324,1.865-1.523,3.15C689.029,278.703,688.59,278.352,688.403,277.922z M690.966,280.008l-0.001-0.005
	c-0.206-1.13,0.495-2.312,1.077-3.072l0.52-0.491c0.332-0.312,1.044-0.809,1.545-0.809c0.435,0,0.664,0.576,0.789,1.165
	c-0.646,0.77-2.192,2.822-2.21,4.844c-0.124,0.029-0.264,0.053-0.411,0.053C692.024,281.692,691.263,281.692,690.966,280.008z
	 M695.631,283.681c-0.681,0-1.136-0.854-1.409-1.627h0.006c-0.273-1.508,1.242-3.615,1.951-4.425
	c0.119-0.052,0.361-0.142,0.645-0.142c0.456,0,0.854,0.254,1.189,0.745c-0.325,0.167-0.624,0.409-0.888,0.724
	c-0.882,1.059-1.287,2.88-1.062,4.63C695.933,283.638,695.783,283.681,695.631,283.681z M700.171,284.205
	c0,0.119-0.062,0.409-0.199,0.549c-0.025,0.026-0.119,0.108-0.367,0.108c-0.055,0-0.119-0.004-0.18-0.011
	c-1.027-0.13-1.651-0.927-1.817-1.169c-0.255-1.396,0.032-2.975,0.685-3.756c0.249-0.299,0.52-0.444,0.829-0.445
	c0.103,0.004,0.892,0.082,1.296,1.434l-0.266,3.199l0.02,0.051V284.205z M716.386,277.71c-0.436,0.396-1.143,0.451-1.594,0.426
	l-5.781-5.243c-0.31-0.28-0.79-0.258-1.072,0.053c-0.281,0.31-0.257,0.79,0.053,1.072l5.578,5.06
	c-0.038,0.643-0.23,1.145-0.592,1.477c-0.48,0.443-1.152,0.551-1.556,0.574l-5.433-5.187c-0.304-0.289-0.783-0.278-1.072,0.025
	c-0.289,0.303-0.279,0.783,0.025,1.073l5.257,5.021c-0.116,0.558-0.344,0.967-0.708,1.221c-0.357,0.251-0.79,0.33-1.158,0.348
	c-0.02-0.023-0.029-0.052-0.053-0.074l-4.729-4.486c-0.304-0.287-0.783-0.275-1.073,0.028c-0.287,0.304-0.275,0.783,0.029,1.071
	l4.13,3.92l-0.015,0.066c-0.148,0.67-0.438,0.794-0.533,0.835c-0.592,0.258-1.615-0.204-1.957-0.401l-2.375-1.664l0.193-2.141
	l-0.033-0.131c-0.449-1.695-1.471-2.396-2.266-2.61c-0.865-1.791-2.125-2.071-2.828-2.071c-0.201,0-0.39,0.021-0.562,0.054
	c-0.503-1.639-1.532-1.91-2.155-1.91c-0.743,0-1.462,0.38-1.955,0.72c-0.695-0.751-1.42-1.131-2.159-1.131
	c-0.802,0-1.536,0.44-2.17,1.273l-8.867-6.333l6.754-10.265c0.933,0.65,2.769,1.864,4.925,2.941
	c0.223,0.111,0.484,0.106,0.701-0.013c1.645-0.897,3.928-1.491,5.748-1.857c-0.465,0.428-0.992,0.945-1.6,1.577
	c-2.479,2.587-1.4,4.157-1.241,4.359c0.609,0.707,1.444,1.081,2.413,1.08c2.126,0,4.475-1.804,5.152-2.365l1.836-0.204
	c1.25,4.313,6.112,6.164,7.156,6.515l5.939,5.941c0.035,0.034,0.08,0.052,0.119,0.078
	C716.838,277.006,716.683,277.439,716.386,277.71z M717.428,274.893l-5.685-5.683c-0.088-0.089-0.199-0.155-0.317-0.191
	c-0.056-0.017-5.638-1.739-6.453-6.09c-0.068-0.362-0.385-0.619-0.745-0.619c-0.028,0-0.056,0.001-0.085,0.005l-2.732,0.304
	c-0.155,0.018-0.302,0.082-0.419,0.186c-0.675,0.597-2.771,2.144-4.336,2.144c-0.514,0-0.903-0.161-1.221-0.506
	c-0.054-0.134-0.262-0.9,1.144-2.366c2.564-2.676,3.649-3.147,3.647-3.147c0.017-0.006,0.033-0.013,0.05-0.019
	c0.013-0.007,1.434-0.608,2.854-0.608c0.238,0,0.462,0.018,0.667,0.052c1.239,0.207,5.795,2.603,8.555,4.163
	c0.185,0.104,0.406,0.126,0.606,0.061l8.201-3.251l4.335,11.536L717.428,274.893z"/>
<path fill="none" stroke="#868281" stroke-width="2.2321" stroke-miterlimit="10" d="M908.508,289.751"/>
<polygon fill="none" stroke="#868281" stroke-width="2.7685" stroke-miterlimit="10" points="903.57,287.593 903.605,296.097 
	912.094,287.608 912.297,287.606 921.884,287.606 921.884,245.965 856.133,245.965 856.133,287.606 901.734,287.606 "/>
<polyline fill="none" stroke="#868281" stroke-width="2.7685" stroke-miterlimit="10" points="869.432,246.252 869.432,239.832 
	927.551,239.832 927.551,275.72 921.465,275.72 "/>

</svg>
